<?xml version="1.0" encoding="utf-8"?>
<svg version="1.1" id="base_1_" xmlns="http://www.w3.org/2000/svg" xmlns:xlink="http://www.w3.org/1999/xlink" x="0px" y="0px"
	 viewBox="0 0 548.4 356.4" style="enable-background:new 0 0 548.4 356.4;" xml:space="preserve">
<style type="text/css">
	.st0{fill:#FFFFFF;}
</style>
<g>
	<path class="st0" d="M188.6,62c-4.8,21.8-12.1,42.7-22.2,62.6c-3,5.9-6.4,11.6-10.6,16.6c-2.2,2.6-4.6,5.1-7.2,7.4
		c-1.5,1.4-3.5,2.4-5.4,3.2c-4.2,1.8-8,0.7-10.9-2.9c-2.6-3.2-3.8-6.9-4.5-10.9c-1.4-6.9-1.4-13.9-0.8-20.9
		c1.2-14.5,3.8-28.8,7.7-42.8c0.1-0.2,0-0.5,0.1-1.4c-0.8,1.1-1.2,1.7-1.7,2.3c-4.9,6.9-9.7,13.9-14.8,20.6c-2.9,3.9-6.3,7.4-9.7,11
		c-1.6,1.6-3.5,3-5.5,4c-3.6,1.9-6.3,0.2-6.3-3.8c0-2.3,0.3-4.7,0.9-7c2.1-8.6,5.1-17,8.6-25.1c2.9-6.7,6.1-13.4,9.2-20
		c1.1-2.3,2.6-4.3,4-6.4c0.6-0.9,1.4-1.7,2.3-2.3c1.5-1,3.3-0.5,4.2,0.9c1,1.7,0.1,3.7-1.8,3.7c-1.5,0-2.2,0.7-2.8,1.7
		c-0.9,1.2-1.7,2.5-2.5,3.8c-7.6,13.5-13.6,27.7-17.8,42.7c-0.5,1.9-0.8,3.8-1.1,5.7c-0.2,1,0,1.9,0,2.9c0.2,0.1,0.5,0.3,0.7,0.4
		c1.2-0.9,2.6-1.6,3.6-2.6c2.9-2.9,5.9-5.8,8.4-9.1c4.5-5.8,8.8-11.8,13.1-17.7c3.4-4.6,6.7-9.3,10.1-14c0.5-0.8,1.1-1.6,1.9-2
		c0.5-0.3,1.6-0.5,2-0.2c0.5,0.3,0.7,1.2,0.7,1.9c0,0.6-0.4,1.3-0.6,1.9c-5.1,13.5-8.3,27.4-10.3,41.7c-0.9,6.5-1.5,13.1-1.3,19.7
		c0.1,4.4,0.5,8.8,2,13c0.8,2.4,2,4.7,3.4,6.7c2.2,3,5.3,3.7,8.5,1.9c2.3-1.2,4.4-2.8,6.3-4.6c4.4-4.1,7.6-9,10.6-14.1
		c6-10.2,10.7-21.1,14.8-32.2c5.7-15.7,10.2-31.6,12.8-48.1c1.1-7.1,1.7-14.3,1.3-21.5c-0.2-3.5-0.6-6.9-2-10.1
		c-1.3-2.9-2-3.2-5-2.6c-0.1,0-0.2,0-0.2,0c-1.4,0.2-2.4-0.2-2.8-1.2s0.1-2,1.3-2.7c2.4-1.4,5.8-1,7.8,0.9c1,1,1.8,2.3,2.4,3.5
		c1.9,4,2.4,8.3,2.5,12.6C192.4,40.3,190.9,51.2,188.6,62z"/>
	<path class="st0" d="M229.9,98.5c-0.6,0.6-16.1,9.8-26,10.6c-2.3,0.2-4.7-0.2-6.9-0.8c-2.7-0.8-4.2-2.8-4.2-5.9
		c0-1.8,0.3-3.3,1.4-4.9c1.4-2.1,2.8-4.3,4.8-5.8c1.1-0.8,2.3-1.5,3.5-1.9c1.5-0.5,3.1,0.2,4,1.5c0.9,1.4,0.8,2.8-0.2,4
		c-1,1.2-2.1,2.3-3.3,3c-2.8,1.6-5.6,2.9-8.7,4.5c0.2,2.6,1,3.7,3.5,4.5c3.2,1,6.4,0.7,9.5-0.1c7.6-1.9,14.5-5.4,21-9.8
		c1-0.7,1.7-1.6,2.6-2.4c1.2-1.1,1.8-1.4,2.5-0.6C234,95.3,231.6,97.4,229.9,98.5z M196.7,97.7c2.6-0.8,4.9-2.1,6.5-4.5
		C200.1,93.4,198.3,95.5,196.7,97.7z"/>
	<path class="st0" d="M286.2,96.1c-0.2,0.5-12.6,16.8-22,21.5c-1.2,0.6-2.5,1-3.8,1.4c-3.9,1.1-7-0.2-8.9-3.8
		c-1.6-3-2.3-6.2-2.2-9.5c0.1-4.2,0.5-8.4,0.7-12.6c0-0.5,0.1-1,0.1-1.9c-0.8,0.9-1.4,1.5-1.9,2.1c-3.2,3.2-6.4,6.5-9.7,9.6
		c-1.4,1.3-3.2,2.2-5,2.9c-3,1.2-5.1-0.6-4.5-3.8c0.2-1,0.5-2,1-2.9c2.6-5.5,6.4-10.1,11.6-13.5c1.1-0.7,2.4-1.3,3.7-1.5
		c2-0.4,3,0.8,2.7,2.9c0.4-0.1,0.9-0.1,1.1-0.4c1.4-1.9,2.8-3.7,3.3-6.2c2.4-11,5.7-21.7,11-31.7c2.4-4.6,5.1-9,8.5-12.9
		c1-1.2,2.2-2.3,3.5-3.2c1.9-1.2,3.6-0.4,3.8,1.8c0.1,1.4,0,2.9-0.4,4.2c-0.7,2.5-1.5,5-2.6,7.4c-6.1,14.2-13.9,27.3-22.7,40
		c-1.1,1.6-1.8,3.2-2.1,5.1c-0.8,5.2-1.3,10.4-0.9,15.6c0.2,2.6,0.8,5,2,7.3c1.7,3,3.8,3.8,7,2.7c1.6-0.6,3.2-1.2,4.6-2.1
		c7.9-4.6,14.5-10.7,19.3-18.6c0.4-0.7,2.1-3,3-2.6C287.3,94.1,286.6,95.2,286.2,96.1z M247.1,89.2c0.4-0.5,0.5-1.1,0.6-1.8
		c-0.4,0.8-1.3,0.8-2.2,0.9c-1.1,0.1-2.4,0.2-3.4,0.7c-4.6,2.8-8.1,6.6-10.3,11.5c-0.4,0.8-0.4,1.8-0.6,2.8c0.2,0.1,0.4,0.2,0.6,0.4
		c1.4-0.9,2.9-1.7,4.2-2.7C240.3,97.6,243.8,93.5,247.1,89.2z M254.8,77.8c0.5-0.8,0.9-1.4,1.3-2c4.3-7.6,8.6-15.1,12.8-22.7
		c2.2-4,4-8.2,5.8-12.4c0.7-1.7,1.2-3.5,1.7-5.2c-4.2,1.8-9.7,9.6-14.3,19.3C258.6,62.5,254.7,74.5,254.8,77.8z"/>
	<path class="st0" d="M339.8,96.1c-0.2,0.5-12.6,16.8-22,21.5c-1.2,0.6-2.5,1-3.8,1.4c-3.9,1.1-7-0.2-8.9-3.8
		c-1.6-3-2.3-6.2-2.2-9.5c0.1-4.2,0.5-8.4,0.7-12.6c0-0.5,0-1,0.1-1.9c-0.8,0.9-1.4,1.5-1.9,2.1c-3.2,3.2-6.4,6.5-9.7,9.6
		c-1.4,1.3-3.2,2.2-5,2.9c-3,1.2-5-0.6-4.5-3.8c0.2-1,0.5-2,1-2.9c2.6-5.5,6.5-10.1,11.5-13.5c1.1-0.7,2.4-1.3,3.7-1.5
		c2-0.4,3,0.8,2.7,2.9c0.4-0.1,0.9-0.1,1.1-0.4c1.4-1.9,2.8-3.7,3.4-6.2c2.4-11,5.7-21.7,11-31.7c2.4-4.6,5.1-9,8.5-12.9
		c1-1.2,2.2-2.3,3.5-3.2c1.9-1.2,3.6-0.4,3.8,1.8c0.1,1.4,0,2.9-0.4,4.2c-0.7,2.5-1.5,5-2.6,7.4c-6.1,14.2-13.9,27.3-22.7,40
		c-1.1,1.6-1.8,3.2-2.1,5.1c-0.8,5.2-1.3,10.4-0.9,15.6c0.2,2.6,0.8,5,2,7.3c1.7,3,3.8,3.8,7,2.7c1.6-0.6,3.1-1.2,4.6-2.1
		c7.9-4.6,14.5-10.7,19.3-18.6c0.4-0.7,2.1-3,3-2.6C340.9,94.1,340.1,95.2,339.8,96.1z M300.6,89.2c0.4-0.5,0.5-1.1,0.6-1.8
		c-0.4,0.8-1.3,0.8-2.2,0.9c-1.1,0.1-2.4,0.2-3.4,0.7c-4.6,2.8-8,6.6-10.3,11.5c-0.4,0.8-0.4,1.8-0.6,2.8c0.2,0.1,0.4,0.2,0.5,0.4
		c1.4-0.9,2.9-1.7,4.2-2.7C293.8,97.6,297.4,93.5,300.6,89.2z M308.3,77.8c0.5-0.8,0.9-1.4,1.3-2c4.3-7.6,8.6-15.1,12.8-22.7
		c2.2-4,4-8.2,5.8-12.4c0.7-1.7,1.2-3.5,1.7-5.2c-4.2,1.8-9.7,9.6-14.3,19.3C312.1,62.5,308.2,74.5,308.3,77.8z"/>
	<path class="st0" d="M383.4,97.2c-2.8,2.1-20.6,15.8-31.6,18.1c-1,0.2-2,0.2-3.6,0.4c-1.1-0.3-2.8-0.5-4.3-1.1
		c-2.8-1.1-4.6-3.2-5-6.2c-0.7-5,0.7-9.7,2.6-14.2c0.1-0.2,0.2-0.3,0.3-0.4c0.9-1.2,2.3-1.4,3.3-0.7c1,0.8,1.1,2,0.1,3.1
		c-2.2,2.4-3,5.4-3.6,8.5c-0.1,0.5-0.1,1-0.2,1.5c-0.2,3.9,2,6.5,5.9,6.7c1.7,0.1,3.6-0.2,5.2-0.6c9.8-2.6,19.4-10,27.6-16.7
		c0.6-0.4,1.3-0.8,2-1.1c0.9-0.3,1.3-0.6,1.8,0.2C384.5,95.6,384,96.6,383.4,97.2z M348.5,81.7c-0.9-1.1-0.7-2.2-0.1-3.3
		c0.6-1.2,1.1-2.5,2.6-2.7c1.3,0,2.3,1.1,2,2.4c-0.2,1.1-0.5,2.1-1,3.1C351.4,82.7,349.6,82.9,348.5,81.7z"/>
	<path class="st0" d="M401.4,94.9c-5.5,2.3-23.1,24.2-27.7,23.1c-1.1-0.6-1.2-1.8-1-2.9c0.2-1.2,6.2-9.5,11.3-19.4
		c0.9-1.7,2-3.3,3.2-4.8c0.6-0.7,1.6-1.2,2.5-1.4c1.2-0.3,2.2,0.6,2.4,1.7c0.2,1-0.4,2.2-1.5,2.2c-2.1,0.1-2.9,1.6-3.7,3
		c-1.8,3.5-9.1,15.9-8.5,15.3c6.1-6,16.8-16,21.3-18.9c2.4-1.3,4-0.3,4.2,2.3c0.1,2.3,0,4.6,0,6.8c0.1,2.3,0.1,4.6,0.5,6.8
		c0.5,2.8,2,3.5,4.6,2.2c4.5-1.9,22.2-11.4,27.5-15.5c0.7-0.6,1.5-1.1,2.4-1.5c1-0.5,1.3,0.9-0.5,2.8c-0.3,0.4-23.9,13.9-26.2,15.2
		c-5.6,3-9.6,1.8-10-3.9c-0.2-2.8,0-5.6-0.1-8.3C402,98.3,402.3,96.7,401.4,94.9z"/>
	<path class="st0" d="M443.2,111.7c0.9-0.6,1.6-1.1,2.3-1.7c9.3-6.8,32.9-15.4,38.1-15.3c0.8,0.4,1,1.3,0.6,2.2s-1.3,0.7-2.1,1
		c-9.8,2.2-28.8,9.2-38.4,17c-1.5,1.2-2.3,2.5-2.7,4.3c-1.8,8.2-4.4,16.1-8.2,23.6c-1.5,2.9-3.2,5.7-5.1,8.4c-1,1.4-2.6,2.7-4.2,3.6
		c-3.1,1.7-6.1,0.1-6.4-3.4c-0.2-1.7,0-3.6,0.4-5.3c0.9-4.1,2.8-7.8,4.9-11.3c4.5-7.3,10.1-13.7,16.5-19.4c1.4-1.2,2.2-2.5,2.5-4.2
		c0.7-4.1,1.5-8.1,2.2-12.2c0.1-0.4,0-0.8,0-1.5c-0.9,0.8-1.5,1.3-2.2,1.9c-3.6,3.1-7.1,6.2-10.7,9.3c-1.5,1.2-3.1,2.3-4.8,3.3
		c-0.8,0.5-1.7,0.8-2.6,0.9c-1.7,0.2-2.7-1.1-2.2-2.7c0.2-0.9,0.7-1.7,1.2-2.5c4.1-5.5,9.1-10.2,15.3-13.4c1.7-0.9,3.6-1.5,5.5-1.7
		c3-0.3,4,1.3,3.2,4.3c-1.2,4.7-2.2,9.3-3.2,14C443,110.9,443.1,111.2,443.2,111.7z M439.2,119.6c-0.1-0.1-0.2-0.1-0.3-0.2
		c-1.2,1.2-2.5,2.4-3.7,3.7c-5.1,5.5-9.7,11.5-12.8,18.4c-0.9,2-1.5,4.1-2,6.2c-0.3,1.4-0.9,3.4,0.5,4.2c1.7,1,3-0.6,4-1.8
		c1.7-2.1,3.4-4.2,4.8-6.5c4.2-7.1,7-14.7,9.3-22.6C439.1,120.6,439.1,120.1,439.2,119.6z M428.8,105.4c2.2-1.8,4.4-3.7,6.5-5.5
		C433,100.6,430.5,102.6,428.8,105.4z"/>
	<path class="st0" d="M99.9,193.5c-0.6,0.9-1.1,1.7-0.8,3c0.4,1.9-2.4,3.7-4.2,2.9c-1-0.5-1.4-1.3-0.9-2.3c0.3-0.8,0.8-1.5,1.3-2.2
		c7.2-10.8,13.6-22.1,18.4-34.3c1-2.6,1.7-5.3,2.4-8c0.2-0.7,0.2-1.5,0.2-2.3c-0.1-3.3-1.7-5.1-5-5.1c-2.2,0-4.4,0.4-6.5,0.9
		c-5.6,1.5-10.6,4.3-15.4,7.5c-17.7,11.8-30.9,27.6-40.5,46.5c-4.3,8.5-7.9,17.3-9.8,26.8c-0.7,3.7-1.1,7.5-1.6,11.2
		c0.4,2.8,0.6,5.5,1.3,8.1c2.2,8.7,9.2,10.9,15.2,10.3c4.1-0.4,8-1.6,11.5-3.6c3.3-1.8,6.6-3.8,9.8-5.9c9.7-6.5,18.9-13.6,27.2-21.9
		c3.2-3.2,6.1-6.6,8.3-10.5c1-1.7,1.9-2.2,2.9-1.7c1.1,0.6,1.3,1.8,0,3.5c-2.1,2.9-4.2,5.8-6.6,8.3c-10.8,10.9-22.9,20-36.1,27.6
		c-4.8,2.8-9.8,4.9-15.4,5.4c-2.2,0.2-4.6,0.1-6.8-0.3c-5.3-1.1-8.8-4.5-10.5-9.6c-1.2-3.7-1.5-7.6-1.3-11.5
		c0.7-9.9,3.5-19.2,7.3-28.3c8.9-21.1,22.1-39,40.4-52.9c5.2-3.9,10.7-7.4,16.8-9.9c3.1-1.3,6.3-2.3,9.8-2.2
		c4.7,0.1,7.4,2.6,7.5,7.4c0.1,3.2-0.8,6.2-1.8,9.1c-3,8.6-7.1,16.8-11.7,24.7C103.7,187.6,101.7,190.5,99.9,193.5z"/>
	<path class="st0" d="M149.1,227c-0.6,0.6-16.1,9.8-26,10.6c-2.3,0.2-4.7-0.1-6.9-0.8c-2.7-0.8-4.2-2.8-4.2-5.9
		c0-1.8,0.3-3.3,1.4-4.9c1.4-2.1,2.8-4.3,4.8-5.8c1.1-0.8,2.3-1.5,3.5-1.9c1.5-0.5,3.2,0.2,4,1.5c0.9,1.4,0.8,2.8-0.2,4
		c-1,1.1-2.1,2.3-3.3,3c-2.8,1.6-5.7,2.9-8.7,4.5c0.2,2.6,1,3.7,3.5,4.5c3.2,1,6.4,0.6,9.5-0.1c7.6-1.9,14.5-5.4,21-9.8
		c1-0.6,1.7-1.6,2.6-2.4c1.2-1.1,1.8-1.4,2.5-0.6C153.2,223.8,150.8,225.9,149.1,227z M116,226.2c2.6-0.8,4.9-2.1,6.5-4.5
		C119.4,221.9,117.6,223.9,116,226.2z"/>
	<path class="st0" d="M152,232.5c0,1.3-0.1,2.6,0.1,3.9c0.1,1.3,0.4,2.5,0.6,3.8c0.4,1.2,0.8,2.5,1.4,3.3c0.6,0.8,1.5,1.4,2.6,1.8
		c1.1,0.4,2.3,0.4,3.5,0.3c2.5-0.2,5.1-0.9,7.5-1.7c9.9-3.4,26.6-21.9,29.3-22.2c1.3-0.1,0.4,1.5-0.4,2.2
		c-0.4,0.4-15.8,15.6-24.6,20.6c-2.6,1.2-5.1,2.2-7.1,2.9s-4.3,0.9-6.4,1c-4.1,0.1-6.8-2.1-8-6c-0.7-2.3-0.9-4.7-0.7-7
		c-0.1-1,0-1.9,0-2.9c0.1-1.4,0.2-2.8,0.4-4.1c0.1-0.8,0.3-1.6,0.5-2.4c-0.1-0.1,0.8-4.5,1.2-4.9c0.9-2.9,1.9-5.7,3.2-8.4
		c2.3-5,4.9-9.8,8-14.3c0.4-0.6,0.9-1.3,1.3-1.9c4.4-7.2,9.5-13.8,15.6-19.9c3-2.9,6.4-5.5,9.8-7.9c1.4-1,3.2-1.6,4.9-1.9
		c2.4-0.5,4.4,0.8,4.9,3.2c0.4,1.6,0.3,3.4,0.1,5c-0.5,3.3-2,6.2-3.6,9.1c-3.5,6.2-7.9,11.7-12.9,16.8c-8.1,8.2-17.3,15.1-27,21.3
		c-1.7,1.1-2.8,2.4-3.4,4.2c-0.2,0.8-0.3,1.6-0.5,2.3C152.3,229.9,152.1,231.2,152,232.5z M189.8,171.6c-1.6,1.2-3.2,2.4-4.7,3.6
		c-7.4,7.5-14.3,15.5-20.1,24.2c-1.2,1.8-2.4,3.6-3.4,5.5c-2.1,3.9-3.9,7.9-5.6,12.1c-0.1,0.4-0.2,0.7-0.4,1.5
		c0.8-0.5,1.4-0.7,1.8-1.1c5.6-4.3,11.2-8.4,16.6-12.9c7.1-6,13.4-12.9,18.2-21c1.6-2.6,2.9-5.5,4.1-8.4c0.5-1.1,0.6-2.5,0.6-3.7
		c0-1.8-1-2.5-2.6-1.9C192.6,170,191,170.6,189.8,171.6z"/>
	<path class="st0" d="M230.1,227c-0.6,0.6-16.1,9.8-26,10.6c-2.3,0.2-4.7-0.1-6.9-0.8c-2.7-0.8-4.2-2.8-4.2-5.9
		c0-1.8,0.3-3.3,1.4-4.9c1.4-2.1,2.8-4.3,4.8-5.8c1.1-0.8,2.3-1.5,3.5-1.9c1.5-0.5,3.1,0.2,4,1.5c0.9,1.4,0.8,2.8-0.2,4
		c-1,1.1-2.1,2.3-3.3,3c-2.8,1.6-5.6,2.9-8.7,4.5c0.2,2.6,1,3.7,3.5,4.5c3.2,1,6.4,0.6,9.5-0.1c7.6-1.9,14.5-5.4,21-9.8
		c1-0.6,1.7-1.6,2.6-2.4c1.2-1.1,1.8-1.4,2.5-0.6C234.2,223.8,231.8,225.9,230.1,227z M196.9,226.2c2.6-0.8,4.9-2.1,6.5-4.5
		C200.4,221.9,198.6,223.9,196.9,226.2z"/>
	<path class="st0" d="M230.5,225.8c-1.4-2.5-0.9-4.7,1.7-6.9c1.4-1.1,2-2.4,2.7-3.8c6.4-14.7,12.8-29.4,20.6-43.4
		c3.7-6.7,7.8-13,12.8-18.8c1.9-2.2,3.9-4.2,6-6.1c1-0.9,2.4-1.6,3.7-2.1c2-0.7,3.6,0.4,3.8,2.5c0.1,1.2,0,2.6-0.4,3.7
		c-0.8,2.6-1.7,5.1-2.9,7.6c-7.8,15.7-16.6,30.7-26.6,45.1c-4.9,7-10.5,13.4-16.4,19.6c-0.8,0.9-1.5,2-2,3.1c-1.1,2.8-1,2.9-2.1,5.7
		c-0.2,0.4-0.2,0.9,0.1,1.7c0.5-0.6,1-1.3,1.6-1.9c3.8-3.6,7.6-7.2,11.6-10.6c2-1.6,4.4-2.9,6.8-3.7c3.9-1.3,6.9,1,7,5.1
		c0,1.8-0.4,3.6-0.6,5.7c0.6-0.2,1.1-0.4,1.6-0.6c3.9-1.8,7.8-3.6,11.8-5.3c1.1-0.5,2.4-1,3.6-1.1c0.9-0.1,2,0.2,2.8,0.7
		c0.4,0.3,0.7,1.4,0.5,2c-0.2,0.5-1.3,1.1-1.7,1c-2.1-0.8-4,0.2-5.9,0.7c-4.2,1.1-8.1,2.8-12,4.7c-1.3,0.6-2.1,1.5-2.7,2.8
		c-2.5,5.5-5.8,10.5-10,14.9c-1.5,1.6-3.3,3.1-5.2,4.4c-1.1,0.7-2.5,1.1-3.8,1.2c-2.7,0.1-4.2-2-3.2-4.6c0.4-1.2,1.1-2.3,1.9-3.2
		c2.1-2.3,4.2-4.7,6.6-6.6c3.6-2.9,7.5-5.5,11.3-8.1c1.3-0.9,2.2-1.8,2.5-3.3c0.3-1.8,0.8-3.6,0.8-5.5c0-2.6-1.8-3.8-4.3-2.9
		c-1.3,0.4-2.7,1.1-3.8,1.9c-8.4,6.1-15.1,13.7-20.3,22.7c-0.3,0.5-0.4,1.1-0.6,1.6c-0.4,1-1.1,1.5-2.2,1.3c-1.1-0.2-1.7-1-1.6-1.9
		c0-1.1,0.3-2.2,0.7-3.2c2-5.3,2.9-7.8,4.9-13C229.7,227.9,230.1,226.9,230.5,225.8z M253.3,233.2c-6.3,4.1-11.8,8.2-16.3,13.5
		c-0.6,0.7-1.2,1.5-1.5,2.3c-0.2,0.6-0.4,1.6-0.1,2.1c0.3,0.4,1.5,0.6,2,0.4c1.8-0.9,3.6-1.9,5.1-3.2c4.3-3.9,7.7-8.7,10.4-13.8
		C253.1,234.2,253.1,234,253.3,233.2z M278.9,147.6c-0.2-0.1-0.4-0.3-0.5-0.4c-0.9,0.5-2,0.9-2.8,1.6c-1.8,1.5-3.5,3.1-5.1,4.9
		c-5.3,5.8-9.6,12.2-13.4,19c-7.3,13.2-13.2,26.9-18.8,40.9c-0.1,0.4-0.2,0.8-0.5,1.6c1-0.9,1.6-1.4,2.1-2.1
		c3.5-4.4,7.2-8.8,10.3-13.4c9.4-13.8,17.8-28.3,25.5-43.1c1-2,1.8-4.2,2.6-6.3C278.6,149.4,278.7,148.4,278.9,147.6z"/>
	<path class="st0" d="M277.9,220.7c0.8,0.1,1.4,0.2,2,0.3c2.7,0.4,4.5,2.3,3.9,4c-1.5,4.1-3.2,7.1-4.8,11.2c-1.5,3.9-3,7.7-4.4,11.6
		c-0.3,0.9-0.2,3.8,2.5,1.7c2-1.7,4-3.3,5.8-5.3c4.4-4.8,8.6-9.7,12.8-14.7c1.5-1.8,2.6-3.9,3.9-5.9c0.2-0.4,1.8-2.7,2.7-2.2
		c1,0.5,0.9,1.6,0.3,2.8c-0.5,1.1-16.6,20.4-21,24.4c-1.6,1.5-3.2,3.2-5.2,4.1c-3,1.4-4.8-0.1-4.3-3.4c0.2-1.5,0.7-2.9,1.3-4.4
		c2.1-5.6,4-10.2,6.1-15.8c0.9-2.4,1.6-5.5-0.2-5.6c-1.4,0-2.7,0.1-4,0.2c-1.6,0.2-3-0.2-4.3-1.2c-1.4-1.1-2-2.5-1.6-4.2
		c0.7-2.9,2.3-5.2,4.9-6.8c1.1-0.7,2.4-1,3.6-0.3c1.4,0.8,1.7,2.1,1.4,3.5C279,216.6,278.5,218.5,277.9,220.7z M274.8,216.6
		c-2.2,1.6-2.5,2.2-1.5,3.6C273.8,219,274.2,217.8,274.8,216.6z"/>
	<path class="st0" d="M343.4,224.6c-0.5,0.6-1.1,1.3-1.8,1.8c-4.9,3.6-10.1,6.4-16.1,7.6c-1.1,0.2-2.3,0.3-3.5,0.4
		c-4,0.1-6.8-1.8-8.4-5.3c-0.7-1.5-1.1-3.1-1.8-4.9c-0.7,0.7-1.3,1.2-1.9,1.8c-2.6,2.5-5.5,4.7-9,6.1c-1,0.4-2.1,0.7-3.2,0.8
		c-2,0.1-3.1-1.5-2.4-3.4c0.2-0.6,0.5-1.1,0.8-1.6c2.7-3.5,5.9-6.5,9.9-8.5c1.7-0.9,3.5-1.4,5.4-0.7c2,0.7,2.7,1.7,2.9,3.9
		c0.1,1.9,0.4,3.9,1,5.7c1,2.9,3.4,4.5,6.5,4.2c11.9-1.4,18.5-8.3,19.3-9.2c1-1.1,1.8-1.8,2.6-1.1
		C344.6,222.5,344.3,223.4,343.4,224.6z M308.5,222.3c-3.7,1.1-6.4,3.5-8.9,6.4C303.2,227.5,306,225.1,308.5,222.3z"/>
	<path class="st0" d="M461.1,177.8c0,1.1-0.9,1.8-2.3,1.8c-1.9-0.1-3.7-0.4-5.5-0.6c-10.4-0.9-20.8-2.2-31.3-2.7
		c-9.4-0.4-18.9-0.1-28.3,0.3c-9.5,0.4-19,1.4-28.5,2.1c-1.5,0.1-2.5,0.5-3.1,2c-7.7,18.7-15.3,37.5-20,57.3c-1,4-1.6,8.1-2.1,12.2
		c-0.2,1.8-0.1,3.7,0.2,5.5c0.4,2.7,1.8,3.4,4.3,2.4c1.5-0.6,3-1.5,4.4-2.5c3-2.2,6-4.4,8.7-6.9c7-6.4,14-13,20.9-19.6
		c1.9-1.9,3.6-4,5.3-6.1c0.2-0.2,0.4-0.7,0.6-0.8c0.7-0.2,1-0.6,1.6-0.4c0.9,0.3,1.1,1.1,0.8,2c-0.2,0.5-2.9,3.3-3.5,3.9
		c-9.4,8.9-18.1,17.4-28.2,25.5c-2,1.6-4.2,3.2-6.3,4.6c-1.2,0.8-2.5,1.5-3.8,2c-3.5,1.3-5.8,0.1-6.7-3.5c-0.8-3.1-0.6-6.2-0.2-9.3
		c1.1-9,3.5-17.7,6.1-26.4c3.9-13,8.8-25.7,13.7-38.4c0.3-0.9,0.6-1.7,1-2.9c-2,0.1-3.7,0.2-5.3,0.4c-7.4,0.6-14.8,1.3-22.2,1.9
		c-1.4,0.1-2.9,0-4.3-0.1c-1.9-0.2-3-1.3-3.1-2.8c-0.1-1.6,1.1-3.9,2.4-4.4c0.9-0.4,1.7-0.2,2.3,0.5c0.6,0.7,0.7,1.6,0.1,2.3
		c-0.5,0.6-1.2,0.9-1.9,1.4c1.5,1.5,3,1.4,4.3,1.5c1.8,0.1,3.7,0.1,5.6,0c7.5-0.4,15-1,22.5-1.4c1-2.2,1.8-4.2,2.8-6.1
		c0.5-1,1.1-1.9,1.9-2.6c1.2-1.1,3-0.9,3.8,0.4c0.8,1.2,0.5,2.4-1.1,3.3c-1.8,0.9-2.1,2.7-3.1,4.6c3.5-0.3,6.5-0.5,9.6-0.7
		c6.8-0.5,13.6-0.9,20.5-1.4c14.2-0.9,28.3-0.6,42.5-0.4c6,0.1,12,0.5,18,0.7c1.7,0.1,3.4,0.1,5,0.1
		C460.4,176.3,461.1,176.8,461.1,177.8z"/>
	<path class="st0" d="M430.2,225.7c-2.8,2.1-20.6,15.8-31.6,18.1c-1,0.2-2,0.2-3.6,0.4c-1.1-0.3-2.8-0.5-4.3-1.1
		c-2.8-1.1-4.6-3.2-5-6.2c-0.7-5,0.7-9.7,2.6-14.2c0.1-0.1,0.2-0.3,0.3-0.4c0.9-1.2,2.3-1.4,3.3-0.7c1,0.8,1.1,2,0.1,3.1
		c-2.2,2.4-3,5.4-3.6,8.5c-0.1,0.5-0.1,1-0.2,1.5c-0.2,3.9,2,6.5,5.9,6.7c1.7,0.1,3.6-0.2,5.2-0.6c9.8-2.6,19.4-10,27.6-16.7
		c0.6-0.4,1.3-0.9,2-1.1c0.9-0.3,1.3-0.6,1.8,0.2C431.4,224.1,430.9,225.1,430.2,225.7z M395.4,210.1c-0.9-1.1-0.7-2.2-0.1-3.3
		c0.6-1.2,1.1-2.5,2.6-2.7c1.3,0,2.3,1.1,2,2.4c-0.2,1.1-0.5,2.1-1,3.1C398.2,211.2,396.4,211.4,395.4,210.1z"/>
	<path class="st0" d="M473.2,225.5c-0.5,0.4-1.2,0.6-1.9,0.7c-5.4,0.5-10.7,1.2-16.1,1.5c-4.8,0.3-9.4-0.9-13.5-3.6
		c-0.3-0.2-0.6-0.2-0.9-0.4c-0.8,3.3-1.5,6.5-2.4,9.6c-1.1,4.1-2.7,8-5.2,11.4c-1.1,1.5-2.4,2.9-3.7,4.1c-1.1,1-2.5,1.6-4,0.8
		c-1.4-0.7-1.7-2-1.7-3.4c0-0.9,0.1-1.9,0.3-2.8c1.6-7.6,4.3-14.9,8.3-21.6c0.8-1.4,1.8-2.7,2.8-3.9c0.6-0.7,1.4-1.3,2.2-1.6
		c1.9-0.8,3.9,0.5,3.6,2.5c-0.2,1.8,0.7,2.6,1.9,3.5c2.9,2,6.1,3.1,9.5,2.9c4.7-0.3,9.4-1.1,14-1.8c1.6-0.2,3.2-0.9,4.8-1.4
		c1.2-0.4,2.2-0.1,2.6,0.8C474.4,223.9,474.2,224.9,473.2,225.5z M437,221.5c-4.5,4.2-10.6,20.4-9.2,24.1
		C432.1,241.2,437.7,226.7,437,221.5z"/>
	<path class="st0" d="M489.5,223.4c-5.5,2.3-23.1,24.1-27.7,23.1c-1.1-0.6-1.2-1.8-1-2.9c0.2-1.2,6.2-9.5,11.3-19.4
		c0.9-1.7,2-3.3,3.2-4.8c0.6-0.7,1.6-1.2,2.5-1.4c1.2-0.3,2.2,0.6,2.4,1.7c0.2,1-0.4,2.2-1.5,2.2c-2.1,0.1-2.9,1.6-3.7,3
		c-1.8,3.5-9.1,15.9-8.5,15.3c6.1-6,16.8-16,21.3-18.9c2.4-1.3,4-0.3,4.2,2.4c0.1,2.3,0,4.6,0,6.8c0.1,2.3,0.1,4.6,0.5,6.8
		c0.5,2.9,2,3.5,4.6,2.2c4.5-1.9,22.2-11.4,27.5-15.5c0.7-0.6,1.5-1.1,2.3-1.5c1-0.5,1.3,0.9-0.5,2.8c-0.3,0.4-23.9,13.9-26.2,15.2
		c-5.6,3-9.6,1.8-10-3.9c-0.2-2.8,0-5.6-0.1-8.3C490.1,226.8,490.4,225.2,489.5,223.4z"/>
</g>
<g>
	<path class="st0" d="M484.6,281.3c-41.9,0.4-381.7,7.1-424.1,3.7c-3.1-1.1,1-2.2,1-2.2c0.3,0,0.6,0,0.9,0.1
		c18.5,2,37.1,1.9,55.7,2.4c24.7,0.7,347.5-6.2,372.2-6.9c3.1-0.1,6.3,0.1,9.4,0.3c1.1,0.1,2.3,0.4,3.3,0.7c1.3,0.4,2.2,1.2,2.1,2.7
		c0,0-5.6,0.7-10.8,0.4S484.6,281.3,484.6,281.3z"/>
</g>
<g>
	<path class="st0" d="M98.1,326.6h-2.1v4.5h-1.4v-10.7h3.4c2.5,0,3.7,1.4,3.7,3.1C101.8,325.1,100.8,326.6,98.1,326.6z M98.1,325.4
		c1.6,0,2.3-0.8,2.3-1.9c0-1.2-0.7-2-2.3-2h-2.1v3.9H98.1z"/>
	<path class="st0" d="M109.8,320.3v9.5h3.7v1.1h-5.1v-10.7H109.8z"/>
	<path class="st0" d="M125.7,321.5h-4.3v3.6h3.9v1.1h-3.9v3.7h4.3v1.1h-5.8v-10.7h5.8V321.5z"/>
	<path class="st0" d="M139,328.6h-4.7l-0.9,2.4H132l3.9-10.6h1.6l3.9,10.6h-1.5L139,328.6z M136.7,322.1l-1.9,5.4h3.9L136.7,322.1z"
		/>
	<path class="st0" d="M151.3,331.1c-2.1,0-3.7-1.2-3.7-3h1.5c0.1,0.9,0.7,1.8,2.2,1.8c1.4,0,2.1-0.8,2.1-1.8c0-2.9-5.8-1-5.8-5
		c0-1.8,1.4-3,3.5-3c2,0,3.4,1.1,3.5,2.7h-1.5c-0.1-0.7-0.8-1.5-2.1-1.5c-1.1,0-2.1,0.6-2.1,1.7c0,2.8,5.8,1,5.8,5
		C154.9,329.6,153.6,331.1,151.3,331.1z"/>
	<path class="st0" d="M167.6,321.5h-4.4v3.6h3.9v1.1h-3.9v3.7h4.4v1.1h-5.8v-10.7h5.8V321.5z"/>
	<path class="st0" d="M187.6,320.3h1.4v7.9c0,1.8-1.2,2.9-3,2.9s-3-1.1-3-3h1.4c0,1,0.5,1.8,1.6,1.8c1.1,0,1.6-0.8,1.6-1.6V320.3z"
		/>
	<path class="st0" d="M201.4,331.1c-3,0-5.4-2.2-5.4-5.5c0-3.2,2.4-5.5,5.4-5.5c3,0,5.4,2.2,5.4,5.5
		C206.8,328.9,204.5,331.1,201.4,331.1z M201.4,329.9c2.2,0,3.9-1.6,3.9-4.2c0-2.6-1.7-4.2-3.9-4.2c-2.3,0-3.9,1.6-3.9,4.2
		C197.5,328.3,199.2,329.9,201.4,329.9z"/>
	<path class="st0" d="M213.6,320.3h1.4V331h-1.4V320.3z"/>
	<path class="st0" d="M230.6,320.3V331h-1.4l-5.6-8.5v8.5h-1.4v-10.7h1.4l5.6,8.5v-8.5H230.6z"/>
	<path class="st0" d="M246.9,320.3h1.4v6.8c0,2,1.1,2.8,2.6,2.8s2.6-0.8,2.6-2.8v-6.8h1.4v6.8c0,2.8-1.8,4-4,4s-4-1.3-4-4
		L246.9,320.3L246.9,320.3z"/>
	<path class="st0" d="M265.5,331.1c-2.1,0-3.7-1.2-3.7-3h1.5c0.1,0.9,0.7,1.8,2.2,1.8c1.4,0,2.1-0.8,2.1-1.8c0-2.9-5.8-1-5.8-5
		c0-1.8,1.4-3,3.5-3c2,0,3.4,1.1,3.5,2.7h-1.5c-0.1-0.7-0.8-1.5-2.1-1.5c-1.1,0-2,0.6-2,1.7c0,2.8,5.8,1,5.8,5
		C269.1,329.6,267.8,331.1,265.5,331.1z"/>
	<path class="st0" d="M284.4,320.3h7.2v1.1h-2.9v9.5h-1.4v-9.5h-2.9L284.4,320.3L284.4,320.3z"/>
	<path class="st0" d="M303,331.1c-3,0-5.4-2.2-5.4-5.5c0-3.2,2.4-5.5,5.4-5.5c3,0,5.4,2.2,5.4,5.5
		C308.4,328.9,306.1,331.1,303,331.1z M303,329.9c2.3,0,3.9-1.6,3.9-4.2c0-2.6-1.7-4.2-3.9-4.2s-3.9,1.6-3.9,4.2
		C299.1,328.3,300.8,329.9,303,329.9z"/>
	<path class="st0" d="M328.9,320.2c2.3,0,4.1,1.2,5,3.2h-1.7c-0.6-1.3-1.7-2-3.3-2c-2.2,0-3.9,1.6-3.9,4.2c0,2.6,1.7,4.2,3.9,4.2
		c1.6,0,2.7-0.7,3.3-2h1.7c-0.8,2-2.6,3.2-5,3.2c-3,0-5.3-2.2-5.3-5.4C323.6,322.5,326,320.2,328.9,320.2z"/>
	<path class="st0" d="M346.6,321.5h-4.4v3.6h3.9v1.1h-3.9v3.7h4.4v1.1h-5.8v-10.7h5.8V321.5z"/>
	<path class="st0" d="M355,320.3v9.5h3.7v1.1h-5.1v-10.7H355z"/>
	<path class="st0" d="M370.9,321.5h-4.4v3.6h3.9v1.1h-3.9v3.7h4.4v1.1h-5.8v-10.7h5.8V321.5z"/>
	<path class="st0" d="M381.9,331h-4v-10.7h3.8c2.3,0,3.4,1.2,3.4,2.7c0,1.4-0.8,2.1-1.9,2.5c1.2,0.2,2.1,1.3,2.1,2.6
		C385.4,329.8,384.1,331,381.9,331z M381.6,321.5h-2.3v3.5h2.4c1.3,0,2-0.6,2-1.7C383.7,322.2,383,321.5,381.6,321.5z M381.7,326.1
		h-2.4v3.8h2.5c1.4,0,2.2-0.7,2.2-1.9C384,326.8,383.1,326.1,381.7,326.1z"/>
	<path class="st0" d="M395.6,320.3c2.5,0,3.7,1.4,3.7,3.1c0,1.4-0.8,2.7-2.5,3.1l2.7,4.5h-1.7l-2.5-4.4h-1.7v4.4h-1.4v-10.7H395.6z
		 M395.6,321.5h-2v4h2c1.6,0,2.3-0.9,2.3-2C397.9,322.3,397.2,321.5,395.6,321.5z"/>
	<path class="st0" d="M412.7,328.6h-4.7l-0.9,2.4h-1.5l3.9-10.6h1.6l3.9,10.6h-1.5L412.7,328.6z M410.4,322.1l-1.9,5.4h3.9
		L410.4,322.1z"/>
	<path class="st0" d="M421,320.3h7.2v1.1h-2.9v9.5h-1.4v-9.5H421L421,320.3L421,320.3z"/>
	<path class="st0" d="M440.6,321.5h-4.4v3.6h3.9v1.1h-3.9v3.7h4.4v1.1h-5.8v-10.7h5.8V321.5z"/>
</g>
</svg>
